<svg width="1152" height="1161" viewBox="0 0 1152 1161" fill="none" xmlns="http://www.w3.org/2000/svg">
<path d="M694.052 454C716.052 454 716.052 454 718.052 455C719.571 458.796 719.119 462.988 719.052 467C720.31 466.938 721.568 466.876 722.865 466.812C726.769 466.826 726.769 466.826 728.99 468.188C731.14 471.855 731.191 476.064 731.333 480.23C731.39 481.682 731.39 481.682 731.447 483.162C731.517 485.191 731.588 487.219 731.658 489.248C731.714 490.693 731.714 490.693 731.771 492.168C731.801 493.047 731.832 493.927 731.863 494.833C731.923 497.047 731.923 497.047 733.052 499C735.014 499.193 736.978 499.38 738.947 499.461C741.953 500.231 743.105 501.61 745.052 504C745.533 506.683 745.533 506.683 745.506 509.778C745.506 510.939 745.506 512.1 745.505 513.296C745.485 514.544 745.464 515.792 745.443 517.078C745.437 518.36 745.432 519.642 745.426 520.962C745.41 524.362 745.371 527.761 745.327 531.161C745.286 534.633 745.268 538.106 745.248 541.578C745.205 548.386 745.136 555.193 745.052 562C743.072 562 741.092 562 739.052 562C739.052 563.65 739.052 565.3 739.052 567C746.642 567 754.232 567 762.052 567C762.077 568.827 762.102 570.654 762.128 572.536C762.212 578.575 762.3 584.614 762.392 590.653C762.447 594.314 762.5 597.975 762.55 601.636C762.597 605.17 762.65 608.704 762.705 612.237C762.735 614.24 762.761 616.243 762.786 618.246C762.816 620.078 762.816 620.078 762.847 621.946C762.87 623.558 762.87 623.558 762.894 625.203C763.033 627.663 763.19 629.697 764.052 632C765.7 633.03 767.367 634.031 769.052 635C770.063 638.033 770.08 639.718 769.912 642.859C769.632 651.51 769.632 651.51 771.052 660C774.852 663.969 778.929 665.266 784.052 667C786.259 668.492 786.259 668.492 787.99 669.938C791.588 672.361 792.805 672.372 797.052 672C799.476 671.252 801.873 670.413 804.24 669.5C810.761 667 810.761 667 814.052 667C815.821 685.837 816.288 704.499 816.174 723.402C816.146 728.125 816.143 732.847 816.144 737.569C816.144 739.203 816.144 740.837 816.144 742.471C816.144 743.287 816.144 744.103 816.144 744.944C816.143 755.889 816.124 766.833 816.056 777.778C816.01 785.235 815.996 792.691 816.018 800.147C816.028 804.07 816.022 807.992 815.977 811.915C815.934 815.589 815.933 819.26 815.964 822.935C815.97 824.908 815.932 826.881 815.891 828.854C816.015 837.104 817.877 841.262 823.725 847.11C829.985 852.193 837.502 852.498 845.293 853.18C849.804 853.622 853.258 854.482 857.052 857C859.052 862 859.052 862 860.052 873C860.547 749.745 860.547 749.745 861.052 624C877.236 616.807 877.236 616.807 884.052 617C889.912 628.719 889.912 628.719 890.984 630.867C891.687 632.27 892.394 633.671 893.105 635.07C893.443 635.738 893.782 636.406 894.13 637.094C894.428 637.678 894.727 638.263 895.034 638.865C895.884 640.648 896.671 642.461 897.442 644.279C899.057 648.078 900.875 651.756 902.74 655.438C903.084 656.121 903.427 656.805 903.781 657.51C904.87 659.674 905.961 661.837 907.052 664C908.492 666.853 909.929 669.707 911.365 672.562C911.69 673.204 912.015 673.846 912.35 674.508C914.412 678.611 916.254 682.772 918.052 687C919.11 689.255 920.182 691.504 921.267 693.746C921.564 694.361 921.861 694.976 922.167 695.609C922.791 696.899 923.415 698.189 924.04 699.479C924.985 701.428 925.928 703.379 926.871 705.33C930.542 712.924 930.542 712.924 934.306 720.473C935.46 722.804 936.542 725.173 937.544 727.574C938.975 731.048 938.975 731.048 941.06 734.207C949.027 747.2 948.069 761.404 948.044 776.108C948.039 787.096 948.254 798.083 948.425 809.07C948.469 811.856 948.51 814.643 948.55 817.43C948.815 835.795 949.218 854.148 949.99 872.5C950.046 873.934 950.046 873.934 950.104 875.396C950.211 878.067 950.33 880.736 950.455 883.406C950.485 884.168 950.515 884.929 950.546 885.714C950.802 890.702 951.714 895.186 953.052 900C953.382 900 953.712 900 954.052 900C954.945 895.4 955.214 890.933 955.242 886.261C955.25 885.508 955.258 884.756 955.267 883.981C955.284 882.354 955.299 880.727 955.313 879.1C955.334 876.507 955.361 873.914 955.389 871.321C955.449 865.797 955.501 860.274 955.552 854.75C955.612 848.383 955.675 842.016 955.744 835.649C955.77 833.127 955.791 830.605 955.812 828.083C955.89 820.086 956.084 812.108 956.507 804.122C956.565 803.007 956.565 803.007 956.623 801.87C956.838 798.166 957.207 794.615 958.052 791C968.514 791.197 977.264 793.697 987.052 797C989.676 797.763 992.303 798.506 994.939 799.227C997.699 800.237 999.715 801.179 1002.05 803C1002.68 806.02 1002.68 806.02 1002.68 809.775C1002.69 810.803 1002.69 810.803 1002.7 811.851C1002.72 814.12 1002.7 816.387 1002.69 818.656C1002.7 820.24 1002.71 821.824 1002.72 823.407C1002.75 827.585 1002.75 831.763 1002.74 835.941C1002.74 842.6 1002.77 849.258 1002.8 855.916C1002.81 858.229 1002.81 860.541 1002.8 862.853C1002.49 874.659 1002.49 874.659 1005.05 886C1007.01 887.169 1007.01 887.169 1009.05 888C1010.46 890.528 1011.51 893.11 1012.61 895.785C1013.89 898.208 1013.89 898.208 1016.52 898.996C1019.05 899.235 1019.05 899.235 1020.77 897.848C1022.23 895.746 1022.91 893.894 1023.61 891.438C1024.84 887.208 1024.84 887.208 1027.05 885C1030.18 884.875 1030.18 884.875 1033.05 885C1034.8 881.96 1035.32 879.704 1035.4 876.211C1035.43 875.267 1035.46 874.324 1035.49 873.352C1035.52 871.878 1035.52 871.878 1035.55 870.375C1035.72 863.324 1036.19 856.39 1037.02 849.391C1038.12 840.062 1038.65 830.756 1039.05 821.375C1039.13 819.591 1039.21 817.807 1039.29 816.023C1039.56 810.016 1039.81 804.008 1040.05 798C1040.1 796.866 1040.14 795.732 1040.19 794.564C1040.49 787.254 1040.77 779.944 1041.04 772.634C1041.13 770.255 1041.22 767.877 1041.31 765.498C1041.94 748.992 1042.17 732.518 1042.05 716C1041.6 716.486 1041.15 716.972 1040.68 717.472C1021.52 738.018 1021.52 738.018 1018.05 741C1017.39 741 1016.73 741 1016.05 741C1015.32 729.944 1018.71 719.41 1026.05 711C1029.58 707.853 1033.36 705.153 1037.26 702.492C1039.33 701.031 1039.33 701.031 1040.05 698C1028.47 699.38 1016.26 701.495 1008.4 710.998C1006.79 713.238 1005.25 715.508 1003.74 717.812C1002.71 719.365 1001.67 720.913 1000.63 722.457C1000.18 723.137 999.731 723.818 999.27 724.519C998.868 725.008 998.466 725.496 998.052 726C997.392 726 996.732 726 996.052 726C994.265 722.426 994.474 718.847 995.052 715C998.87 704.474 1004.71 697.479 1014.45 692.141C1016.38 691.005 1016.38 691.005 1017.05 688C987.773 687.624 987.773 687.624 959.052 692C962.862 681.187 973.302 675.815 983.052 671C986.847 669.696 990.699 669.873 994.662 669.902C995.388 669.904 996.115 669.905 996.864 669.907C999.177 669.912 1001.49 669.925 1003.8 669.938C1005.37 669.943 1006.95 669.947 1008.52 669.951C1012.36 669.962 1016.21 669.979 1020.05 670C1019.17 669.152 1018.29 668.304 1017.38 667.43C988.768 639.606 988.768 639.606 988.052 626C993.115 627.558 996.573 630.652 1000.55 634C1001.97 635.175 1003.39 636.348 1004.81 637.52C1005.88 638.397 1005.88 638.397 1006.96 639.292C1010.05 641.815 1013.2 644.261 1016.36 646.688C1017.39 647.475 1018.42 648.263 1019.48 649.074C1021.3 650.436 1023.16 651.739 1025.05 653C1025.07 652.057 1025.09 651.114 1025.11 650.142C1025.19 646.629 1025.28 643.116 1025.37 639.603C1025.41 638.085 1025.44 636.567 1025.47 635.049C1025.52 632.862 1025.58 630.675 1025.64 628.488C1025.69 626.517 1025.69 626.517 1025.73 624.505C1026.03 621.236 1026.64 618.939 1028.05 616C1029.04 616 1030.03 616 1031.05 616C1037.9 633.302 1037.9 633.302 1040.18 640.438C1041.38 644.16 1042.75 647.652 1044.43 651.188C1047.91 658.56 1050.42 666.293 1053.05 674C1053.08 673.033 1053.1 672.066 1053.13 671.07C1053.92 652.891 1061.76 641.999 1074.05 629C1074.63 628.384 1075.2 627.768 1075.79 627.133C1080.76 621.979 1086.2 617.112 1092.05 613C1093.04 613 1094.03 613 1095.05 613C1094.5 617.201 1093.54 620.514 1091.65 624.301C1091.17 625.279 1090.69 626.256 1090.2 627.264C1089.7 628.27 1089.2 629.276 1088.68 630.312C1084.54 638.619 1080.54 646.759 1079.05 656C1080.21 655.481 1081.37 654.961 1082.57 654.426C1090.49 650.889 1098.4 647.382 1106.43 644.098C1109.7 642.727 1112.91 641.233 1116.11 639.699C1118.05 639 1118.05 639 1122.05 639C1120.7 642.142 1119.33 643.848 1116.6 645.883C1115.9 646.405 1115.21 646.927 1114.49 647.465C1113.75 648.013 1113.01 648.561 1112.24 649.125C1110.68 650.294 1109.12 651.463 1107.56 652.633C1106.79 653.207 1106.01 653.781 1105.22 654.372C1103.36 655.766 1101.53 657.18 1099.7 658.617C1092.44 664.337 1084.93 669.584 1077.23 674.711C1076.45 675.239 1075.66 675.768 1074.85 676.312C1074.14 676.783 1073.43 677.254 1072.7 677.738C1070.91 678.916 1070.91 678.916 1070.05 681C1071.13 680.529 1072.2 680.059 1073.31 679.574C1074.74 678.945 1076.18 678.316 1077.61 677.688C1078.32 677.379 1079.02 677.07 1079.75 676.752C1081.16 676.133 1082.58 675.516 1083.99 674.9C1085.32 674.32 1086.65 673.732 1087.97 673.135C1098.77 668.319 1110.04 669.102 1121.05 673C1134.03 678.753 1143.29 685.837 1149.05 699C1149.89 701.344 1150.51 703.565 1151.05 706C1149.6 704.701 1149.6 704.701 1148.11 703.375C1141.43 697.696 1134.99 693.644 1126.63 690.859C1124.05 690 1124.05 690 1121.81 688.961C1117.85 687.581 1113.89 687.275 1109.74 686.875C1108.49 686.745 1108.49 686.745 1107.21 686.613C1105.16 686.402 1103.1 686.2 1101.05 686C1103.82 692.277 1106.93 696.303 1111.93 700.938C1124.69 713.365 1124.69 713.365 1125.4 720.438C1125.42 723.653 1125.32 726.797 1125.05 730C1122.76 729.824 1122.76 729.824 1120.05 729C1118.28 726.707 1118.28 726.707 1116.68 723.812C1111.77 715.642 1106.15 710.975 1097.05 708C1092.41 706.854 1087.75 705.882 1083.05 705C1083.67 706.114 1084.29 707.227 1084.93 708.375C1089.85 718.4 1090.94 731.363 1088.26 742.215C1087.34 744.662 1086.52 746.838 1085.05 749C1084.06 749.33 1083.07 749.66 1082.05 750C1081.76 748.529 1081.76 748.529 1081.46 747.027C1078.02 731.036 1071.25 718.075 1059.05 707C1058.06 706.67 1057.07 706.34 1056.05 706C1055.78 709.975 1055.52 713.951 1055.25 717.926C1055.12 719.908 1054.99 721.89 1054.85 723.871C1053.18 748.907 1052.82 773.931 1052.58 799.013C1052.5 807.519 1052.4 816.025 1052.31 824.531C1052.3 825.46 1052.29 826.389 1052.28 827.347C1052.09 843.837 1051.83 860.325 1051.49 876.812C1051.47 877.884 1051.45 878.955 1051.42 880.059C1051.3 885.706 1051.18 891.353 1051.05 897C1056 897 1060.95 897 1066.05 897C1066.05 868.29 1066.05 839.58 1066.05 810C1092.45 810 1118.85 810 1146.05 810C1146.05 845.64 1146.05 881.28 1146.05 918C1019.99 918 893.932 918 764.052 918C764.052 842.1 764.052 766.2 764.052 688C768.672 688 773.292 688 778.052 688C777.722 683.71 777.392 679.42 777.052 675C771.772 675 766.492 675 761.052 675C761.052 754.86 761.052 834.72 761.052 917C750.162 917 739.272 917 728.052 917C727.974 905.938 728.042 894.936 728.522 883.885C729.066 870.499 729.378 857.115 729.606 843.72C729.627 842.525 729.648 841.33 729.67 840.1C730.108 814.726 730.201 789.356 730.187 763.979C730.184 757.935 730.186 751.892 730.188 745.848C730.19 735.751 730.187 725.653 730.183 715.555C730.177 703.968 730.179 692.381 730.184 680.793C730.189 670.704 730.19 660.615 730.187 650.526C730.185 644.56 730.185 638.593 730.189 632.627C731.574 595.117 731.574 595.117 728.052 558C727.197 567.753 726.758 577.496 726.497 587.28C726.476 588.037 726.455 588.793 726.433 589.573C726.006 605.167 725.913 620.756 725.936 636.355C725.941 640.147 725.939 643.938 725.938 647.73C725.938 654.252 725.941 660.774 725.947 667.296C725.955 676.726 725.957 686.155 725.959 695.584C725.961 710.894 725.967 726.204 725.977 741.514C725.986 756.359 725.993 771.204 725.997 786.049C725.998 786.969 725.998 787.889 725.998 788.836C725.999 793.452 726.001 798.067 726.002 802.683C726.012 840.789 726.03 878.894 726.052 917C715.492 917 704.932 917 694.052 917C694.052 764.21 694.052 611.42 694.052 454Z" fill="white"/>
<path d="M472.052 470C472.831 471.475 473.6 472.955 474.365 474.437C475.008 475.673 475.008 475.673 475.665 476.933C479.207 484.764 480.636 492.019 481.203 500.581C481.282 501.674 481.361 502.767 481.443 503.893C482.213 515.156 482.486 526.414 482.644 537.7C482.681 539.945 482.718 542.191 482.756 544.436C483.17 570.128 483.362 595.824 483.543 621.518C483.578 626.496 483.614 631.473 483.651 636.451C483.657 637.176 483.662 637.901 483.668 638.648C483.679 640.124 483.69 641.6 483.701 643.076C483.803 656.753 483.901 670.43 483.998 684.107C484.08 695.633 484.165 707.159 484.253 718.686C484.356 732.292 484.457 745.898 484.555 759.505C484.565 760.982 484.576 762.459 484.587 763.936C484.592 764.661 484.597 765.387 484.603 766.134C484.647 772.224 484.693 778.315 484.739 784.405C485.066 828.606 485.052 872.795 485.052 917C327.972 917 170.892 917 9.05209 917C9.05209 882 9.05209 882 11.0521 878C12.0627 877.67 13.0733 877.34 14.1146 877C15.084 876.67 16.0533 876.34 17.0521 876C18.4768 872.095 18.3928 867.866 18.6146 863.75C18.6578 863.005 18.701 862.26 18.7454 861.492C18.8511 859.661 18.952 857.831 19.0521 856C21.9485 855.919 24.8426 855.859 27.7396 855.812C28.5562 855.787 29.3728 855.762 30.2142 855.736C34.9867 855.678 38.2308 855.809 42.0521 859C43.4662 860.937 43.4662 860.937 44.6771 863C47.2981 866.771 49.2768 867.627 53.7396 868.562C58.8268 869.665 58.8268 869.665 61.1146 873.062C61.6419 874.894 61.6419 874.894 62.0521 877C62.239 877.849 62.4259 878.699 62.6185 879.574C62.9787 881.299 63.3152 883.03 63.6224 884.765C64.0317 887.158 64.0317 887.158 65.0521 890C67.0321 889.34 69.0121 888.68 71.0521 888C71.8465 884.476 72.1973 881.182 72.2574 877.573C72.2773 876.496 72.2973 875.419 72.3178 874.31C72.3345 873.139 72.3513 871.968 72.3685 870.762C72.3894 869.521 72.4102 868.281 72.4317 867.004C72.4869 863.608 72.5374 860.211 72.5847 856.815C72.6146 854.683 72.646 852.55 72.6778 850.418C72.9901 829.203 73.1582 807.989 73.175 786.772C73.177 784.786 73.181 782.801 73.1849 780.816C73.2133 762.851 72.8203 744.947 72.0521 727C62.5043 730.477 56.5545 741.244 52.0521 750C49.3647 755.89 47.0553 761.844 45.0521 768C44.0621 768 43.0721 768 42.0521 768C38.7643 757.58 41.1432 745.16 44.0521 735C44.2648 734.221 44.4775 733.443 44.6966 732.64C45.1283 731.088 45.5857 729.542 46.0521 728C35.2488 729.92 27.4881 738.064 20.6683 746.138C19.5193 747.476 18.2907 748.744 17.0521 750C16.0621 750 15.0721 750 14.0521 750C14.8454 740.071 21.4457 733.121 28.6146 726.625C32.6298 723.246 36.7924 720.064 41.0521 717C31.7409 716.365 19.3896 716.47 11.4139 722.171C9.04504 724.259 6.99864 726.537 4.97006 728.953C4.02066 729.966 4.02066 729.966 3.05209 731C2.06209 731 1.07209 731 0.0520891 731C-0.299143 725.925 1.1295 723.889 4.22787 720.047C10.2331 713.308 16.9413 708.898 25.0521 705C25.859 704.583 26.666 704.167 27.4974 703.738C36.5573 699.691 46.3499 700.658 56.0521 701C43.8116 694.718 43.8116 694.718 31.0521 689.625C22.2489 686.354 11.417 678.952 6.76693 670.726C6.41309 669.872 6.41309 669.872 6.05209 669C18.1224 669.646 38.6555 674.522 47.9701 682.68C48.5057 683.333 48.5057 683.333 49.0521 684C46.5209 675.291 43.0098 667.218 39.1383 659.032C37.1102 654.675 35.5181 650.849 35.0521 646C40.5982 647.082 42.8703 649.701 46.2826 653.887C47.8627 655.774 49.4816 657.353 51.3021 659C60.279 667.936 66.6624 678.513 69.9544 690.695C71.1656 694.342 72.6522 697.003 75.0521 700C76.0421 700 77.0321 700 78.0521 700C78.0289 699.233 78.0057 698.466 77.9818 697.676C77.8031 686.687 78.8342 675.91 80.0521 665C80.1375 664.227 80.2229 663.455 80.3109 662.659C81.7545 649.915 81.7545 649.915 84.0521 646C88.8038 650.033 89.4575 656.059 90.0521 662C90.4061 670.661 90.2413 679.336 90.0521 688C95.0265 684.741 99.8807 681.436 104.552 677.75C109.487 674.025 114.566 670.685 119.865 667.5C120.57 667.066 121.275 666.633 122.001 666.186C126.425 663.584 129.924 662.375 135.052 662C132.561 666.664 129.291 670.202 125.677 674C124.721 675.015 124.721 675.015 123.745 676.051C119.706 680.307 115.591 684.48 111.427 688.613C110.951 689.087 110.474 689.56 109.983 690.048C107.613 692.4 105.235 694.745 102.847 697.08C101.979 697.937 101.111 698.793 100.216 699.676C99.4371 700.438 98.658 701.2 97.8553 701.985C95.8431 703.965 95.8431 703.965 95.0521 707C96.3128 706.518 96.3128 706.518 97.599 706.027C104.86 703.867 113.978 703.598 121.052 706.625C129.157 711.334 137.846 719.191 143.052 727C143.177 730.187 143.177 730.187 143.052 733C139.26 732.425 136.61 731.36 133.357 729.348C132.475 728.818 131.593 728.289 130.685 727.744C128.865 726.634 127.05 725.517 125.24 724.392C118.934 720.632 113.352 718.809 106.052 718C106.704 718.727 107.357 719.454 108.029 720.203C117.365 730.85 123.374 740.992 123.286 755.519C122.942 759.16 121.736 761.773 120.052 765C119.062 764.67 118.072 764.34 117.052 764C116.155 761.47 115.421 759.025 114.74 756.437C112.848 749.91 110.842 744.963 106.052 740C105.347 739.253 104.642 738.507 103.915 737.738C96.671 729.981 96.671 729.981 88.0521 724C89.1767 725.771 90.3018 727.542 91.4271 729.312C92.0536 730.298 92.6801 731.285 93.3255 732.301C94.5486 734.213 95.793 736.111 97.0521 738C97.0521 739.32 97.0521 740.64 97.0521 742C92.8797 741.481 90.7979 740.288 87.7396 737.437C87.0422 736.797 86.3448 736.156 85.6263 735.496C85.1068 735.002 84.5873 734.509 84.0521 734C84.4789 768.556 84.4789 768.556 87.0521 803C87.6837 802.553 88.3154 802.105 88.9661 801.644C100.327 793.967 116.834 786.5 131.052 789C133.798 793.119 134.16 796.783 134.257 801.653C134.277 802.55 134.297 803.448 134.318 804.373C134.335 805.336 134.351 806.3 134.368 807.293C134.389 808.304 134.41 809.316 134.432 810.358C134.497 813.635 134.556 816.911 134.615 820.187C134.657 822.422 134.7 824.656 134.743 826.89C135.023 841.929 135.185 856.959 135.052 872C137.135 872.027 139.219 872.046 141.302 872.062C143.042 872.08 143.042 872.08 144.818 872.098C147.495 872.017 149.508 871.699 152.052 871C152.872 853.465 153.246 835.955 153.368 818.402C153.389 815.86 153.41 813.317 153.431 810.774C153.48 804.843 153.526 798.912 153.569 792.98C153.62 786.208 153.674 779.437 153.729 772.665C153.842 758.776 153.949 744.888 154.052 731C158.965 730.851 163.879 730.709 168.792 730.573C170.444 730.526 172.097 730.478 173.749 730.427C191.86 729.877 209.917 730 228.052 730C228.052 755.41 228.052 780.82 228.052 807C238.612 806.34 249.172 805.68 260.052 805C261.042 787.51 262.032 770.02 263.052 752C280.463 745.036 280.463 745.036 290.052 744C290.847 740.475 291.197 737.177 291.257 733.567C291.277 732.506 291.297 731.446 291.318 730.353C291.343 728.652 291.343 728.652 291.368 726.918C291.4 725.164 291.4 725.164 291.431 723.374C291.497 719.645 291.556 715.916 291.615 712.187C291.658 709.657 291.701 707.126 291.745 704.596C291.853 698.397 291.952 692.199 292.052 686C304.922 686 317.792 686 331.052 686C331.052 740.12 331.052 794.24 331.052 850C352.369 850.965 352.369 850.965 362.052 844C366.112 836.496 365.489 826.572 365.469 818.255C365.477 816.936 365.486 815.618 365.495 814.259C365.518 810.676 365.523 807.093 365.525 803.51C365.531 799.73 365.554 795.951 365.576 792.172C365.614 785.012 365.639 777.851 365.657 770.691C365.69 757.904 365.749 745.118 365.811 732.332C365.832 727.861 365.847 723.389 365.858 718.918C365.92 694.015 365.92 694.015 366.44 683.342C366.47 682.646 366.5 681.95 366.531 681.232C366.756 677.468 367.346 674.377 369.052 671C373.597 667.667 379.712 668.452 385.052 669C393.58 672.679 399.937 682.643 405.447 689.894C407.006 692.073 407.006 692.073 409.119 693.865C412.146 698.775 411.614 703.61 411.582 709.269C411.591 710.515 411.6 711.762 411.609 713.046C411.629 716.468 411.631 719.888 411.627 723.31C411.626 726.923 411.649 730.537 411.669 734.151C411.705 741.03 411.721 747.908 411.729 754.786C411.742 764.755 411.781 774.723 411.823 784.691C411.826 785.434 411.829 786.178 411.833 786.944C411.839 788.433 411.845 789.922 411.852 791.411C411.869 795.671 411.881 799.931 411.886 804.19C411.913 823.479 412.346 842.725 413.052 862C413.062 861.031 413.073 860.061 413.083 859.063C413.355 833.53 413.644 807.997 413.951 782.464C414.015 777.147 414.077 771.831 414.138 766.514C414.228 758.724 414.327 750.934 414.438 743.144C414.472 740.656 414.503 738.168 414.531 735.68C414.803 711.686 414.803 711.686 417.052 700C418.372 699.67 419.692 699.34 421.052 699C419.815 697.824 419.815 697.824 418.552 696.625C416.052 694 416.052 694 416.052 692C415.433 691.732 414.815 691.464 414.177 691.187C412.052 690 412.052 690 410.052 687C409.927 684.312 409.927 684.312 410.052 682C411.372 681.67 412.692 681.34 414.052 681C414.072 679.935 414.092 678.871 414.112 677.775C414.188 673.814 414.277 669.854 414.369 665.894C414.408 664.182 414.443 662.47 414.474 660.758C414.52 658.293 414.578 655.828 414.638 653.363C414.65 652.601 414.661 651.84 414.673 651.055C414.786 646.977 415.061 643.603 417.052 640C418.537 639.01 418.537 639.01 420.052 638C423.814 628.88 422.41 616.9 422.433 607.209C422.442 604.809 422.476 602.411 422.513 600.012C422.508 599.281 422.503 598.551 422.498 597.799C422.592 592.923 423.582 590.421 427.052 587C429.24 585.812 429.24 585.812 431.052 585C432.415 582.274 432.177 580.12 432.178 577.069C432.184 575.201 432.184 575.201 432.19 573.296C432.19 572.629 432.19 571.961 432.19 571.274C432.194 568.468 432.215 565.663 432.235 562.857C432.273 557.633 432.305 552.408 432.303 547.184C432.302 543.55 432.325 539.917 432.364 536.284C432.375 534.901 432.376 533.518 432.369 532.135C432.359 530.196 432.383 528.257 432.409 526.319C432.412 525.217 432.416 524.115 432.42 522.979C433.433 518.204 436.738 516.099 440.344 513.084C442.704 510.205 442.479 508.342 442.38 504.66C442.376 503.432 442.372 502.204 442.368 500.939C442.324 498.358 442.264 495.777 442.189 493.197C442.198 484.019 442.198 484.019 444.594 481.159C446.692 479.824 448.74 478.908 451.052 478C452.427 477.266 453.796 476.52 455.158 475.762C456.516 475.066 457.877 474.375 459.24 473.687C459.925 473.328 460.61 472.969 461.316 472.599C465.035 470.72 467.774 469.51 472.052 470Z" fill="white"/>
<path d="M582.052 0C582.751 14.2318 583.316 28.4574 583.607 42.7036C583.628 43.7229 583.649 44.7421 583.67 45.7923C584.373 81.5509 584.199 117.324 584.188 153.088C584.185 160.678 584.185 168.268 584.186 175.859C584.186 176.955 584.187 178.05 584.187 179.179C584.187 181.408 584.187 183.637 584.188 185.867C584.191 206.627 584.187 227.387 584.182 248.147C584.177 265.747 584.178 283.347 584.183 300.948C584.188 321.599 584.19 342.251 584.187 362.903C584.187 365.132 584.187 367.362 584.186 369.591C584.186 371.235 584.186 371.235 584.186 372.912C584.185 380.427 584.186 387.942 584.189 395.457C584.201 437.511 584.127 479.561 583.638 521.613C583.607 524.275 583.577 526.937 583.548 529.599C582.805 595.166 582.805 595.166 576.052 617C568.462 617 560.872 617 553.052 617C558.697 625.708 564.183 633.687 571.314 641.219C573.052 644 573.052 644 572.947 647.406C572.052 651 572.052 651 571.025 654.133C569.622 659.713 569.564 665.141 569.49 670.875C569.44 672.008 569.391 673.141 569.34 674.309C569.254 681.366 570.186 685.54 574.857 690.907C576.891 692.951 576.891 692.951 578.768 694.201C583.654 697.777 583.654 697.777 584.698 700.982C584.934 703.346 584.953 705.623 584.894 707.998C584.9 708.893 584.906 709.788 584.912 710.711C584.924 713.706 584.885 716.698 584.847 719.693C584.845 721.842 584.846 723.99 584.85 726.139C584.852 731.969 584.811 737.799 584.762 743.629C584.718 749.723 584.714 755.817 584.706 761.911C584.684 773.449 584.627 784.987 584.557 796.526C584.478 809.662 584.44 822.798 584.405 835.935C584.332 862.957 584.203 889.978 584.052 917C556.992 917 529.932 917 502.052 917C501.932 895.987 501.932 895.987 501.906 887.029C501.888 880.917 501.867 874.805 501.826 868.693C501.794 863.765 501.776 858.838 501.768 853.91C501.762 852.03 501.751 850.15 501.735 848.27C501.713 845.637 501.71 843.004 501.712 840.37C501.701 839.594 501.69 838.817 501.679 838.016C501.705 833.545 502.124 830.474 505.052 827C506.042 827 507.032 827 508.052 827C508.777 823.689 509.216 820.522 509.369 817.137C509.411 816.25 509.453 815.364 509.496 814.451C509.535 813.539 509.574 812.627 509.615 811.688C509.658 810.756 509.701 809.825 509.746 808.865C509.851 806.577 509.954 804.289 510.052 802C510.935 801.98 511.818 801.96 512.727 801.94C516.017 801.862 519.306 801.775 522.595 801.683C524.016 801.644 525.437 801.61 526.858 801.578C528.906 801.532 530.954 801.474 533.002 801.414C534.232 801.383 535.463 801.351 536.731 801.319C539.906 801.014 542.187 800.356 545.052 799C545.095 797.334 545.093 795.666 545.052 794C537.26 786.208 523.067 792.344 512.052 792C512.052 733.59 512.052 675.18 512.052 615C516.342 615 520.632 615 525.052 615C525.05 612.871 525.048 610.743 525.046 608.55C525.025 588.313 525.01 568.076 525.001 547.839C524.996 537.439 524.989 527.04 524.977 516.64C524.967 507.554 524.961 498.468 524.958 489.382C524.957 484.591 524.954 479.8 524.947 475.009C524.93 463.564 524.954 452.121 525.035 440.676C525.053 437.889 525.064 435.103 525.075 432.316C525.096 427.614 525.144 422.913 525.213 418.211C525.235 416.434 525.248 414.656 525.253 412.879C525.262 410.433 525.301 407.99 525.349 405.544C525.345 404.82 525.34 404.096 525.336 403.351C525.431 400.095 525.666 398.397 527.971 396.028C531.052 395 531.052 395 541.052 395C541.052 339.56 541.052 284.12 541.052 227C546.332 225.35 551.612 223.7 557.052 222C557.029 220.498 557.006 218.996 556.983 217.449C556.776 203.266 556.653 189.085 556.615 174.901C556.593 167.609 556.541 160.32 556.418 153.029C556.311 146.669 556.261 140.312 556.278 133.951C556.285 130.585 556.256 127.229 556.176 123.863C555.712 103.385 555.712 103.385 559.676 97.6517C563.879 93.3359 568.592 90.4735 574.052 88C574.712 88 575.372 88 576.052 88C576.05 87.2176 576.048 86.4351 576.046 85.629C576.025 78.1594 576.01 70.6898 576.001 63.2202C575.995 59.3825 575.989 55.5448 575.977 51.707C575.892 22.3985 575.892 22.3985 576.369 9.98438C576.402 8.77591 576.402 8.77591 576.436 7.54303C576.543 5.36621 576.543 5.36621 577.052 2C580.052 0 580.052 0 582.052 0Z" fill="white"/>
<path d="M595.052 113C597.52 114.152 599.1 115.048 601.052 117C602.052 120 602.052 120 603.052 123C605.733 125.681 607.444 125.387 611.177 125.625C612.821 125.737 612.821 125.737 614.497 125.852C615.341 125.901 616.184 125.95 617.052 126C617.062 127.311 617.073 128.623 617.083 129.974C617.182 142.474 617.285 154.973 617.391 167.472C617.446 173.895 617.499 180.317 617.549 186.74C613.705 235.909 613.705 235.909 623.052 282C623.703 285.249 623.971 288.513 624.24 291.812C624.321 292.696 624.403 293.58 624.488 294.49C624.687 296.659 624.871 298.829 625.052 301C626.197 300.845 626.197 300.845 627.365 300.688C630.052 301 630.052 301 631.679 303.049C633.322 306.579 633.592 309.7 633.704 313.523C633.737 314.268 633.769 315.013 633.802 315.78C633.901 318.187 633.978 320.593 634.052 323C634.079 323.765 634.106 324.53 634.134 325.318C634.351 331.419 634.492 337.521 634.615 343.625C634.636 344.637 634.657 345.649 634.679 346.692C635.496 387.45 635.136 428.236 635.052 469C635.667 468.988 636.282 468.977 636.915 468.965C638.128 468.951 638.128 468.951 639.365 468.938C640.565 468.92 640.565 468.92 641.79 468.902C644.052 469 644.052 469 647.052 470C649.246 474.764 649.392 479.492 649.466 484.648C649.486 485.534 649.505 486.419 649.525 487.331C649.587 490.345 649.632 493.36 649.677 496.375C649.696 497.426 649.715 498.476 649.734 499.559C650.413 538.031 650.139 576.524 650.052 615C651.104 614.979 652.156 614.959 653.24 614.938C656.398 614.989 658.996 615.33 662.052 616C662.903 636.783 663.193 657.523 663.154 678.322C663.147 682.305 663.147 686.289 663.146 690.273C663.142 697.762 663.134 705.252 663.124 712.741C663.113 721.291 663.107 729.84 663.102 738.39C663.092 755.926 663.074 773.463 663.052 791C652.492 791.33 641.932 791.66 631.052 792C631.052 794.64 631.052 797.28 631.052 800C632.964 801.912 636.389 801.244 638.931 801.316C639.618 801.337 640.304 801.358 641.012 801.379C643.213 801.445 645.414 801.504 647.615 801.562C649.104 801.606 650.593 801.649 652.081 801.693C655.738 801.801 659.395 801.902 663.052 802C663.082 802.87 663.082 802.87 663.112 803.757C663.208 806.401 663.317 809.044 663.427 811.688C663.458 812.6 663.489 813.512 663.521 814.451C663.719 820.985 663.719 820.985 666.052 827C667.042 827.474 668.032 827.949 669.052 828.438C672.052 830 672.052 830 673.225 832.59C674.17 836.485 674.318 840.138 674.279 844.117C674.279 844.92 674.28 845.724 674.28 846.552C674.278 849.136 674.263 851.72 674.247 854.305C674.245 855.907 674.242 857.509 674.241 859.112C674.231 865.033 674.203 870.954 674.177 876.875C674.136 890.116 674.095 903.358 674.052 917C646.992 917 619.932 917 592.052 917C591.939 888.402 591.847 859.804 591.793 831.206C591.767 817.928 591.732 804.649 591.675 791.371C591.625 779.8 591.593 768.229 591.582 756.658C591.575 750.529 591.56 744.4 591.523 738.272C591.49 732.506 591.479 726.74 591.487 720.974C591.485 718.855 591.475 716.737 591.456 714.619C591.431 711.73 591.437 708.842 591.451 705.953C591.436 705.112 591.422 704.27 591.407 703.404C591.462 699.082 591.625 697.516 594.482 694.067C595.33 693.385 596.178 692.703 597.052 692C598.148 690.716 599.216 689.405 600.24 688.062C600.728 687.435 601.217 686.807 601.72 686.16C605.942 679.313 605.777 671.784 605.052 664C604.203 661.095 603.198 658.439 601.927 655.695C600.745 652.054 600.296 648.748 601.052 645C602.516 642.44 604.43 640.469 606.49 638.375C612.658 631.693 617.302 624.758 622.052 617C613.802 617 605.552 617 597.052 617C593.226 602.028 592.86 587.155 592.499 571.776C592.478 570.915 592.457 570.054 592.435 569.167C591.967 549.605 591.902 530.047 591.907 510.481C591.907 505.445 591.901 500.409 591.897 495.373C591.889 485.575 591.886 475.778 591.885 465.98C591.885 458.012 591.883 450.044 591.879 442.076C591.871 419.393 591.866 396.71 591.867 374.028C591.867 372.813 591.867 371.598 591.867 370.347C591.867 369.13 591.867 367.914 591.867 366.661C591.867 346.89 591.858 327.118 591.844 307.347C591.829 286.955 591.822 266.564 591.823 246.173C591.824 234.76 591.821 223.347 591.81 211.933C591.801 202.237 591.799 192.54 591.806 182.843C591.809 177.907 591.809 172.97 591.8 168.034C591.733 127.531 591.733 127.531 594.052 114C594.382 113.67 594.712 113.34 595.052 113Z" fill="white"/>
<path d="M201.827 678.142C204.048 678.187 206.261 678.163 208.482 678.131C209.901 678.139 211.321 678.151 212.74 678.168C214.022 678.181 215.305 678.194 216.626 678.208C221.375 679.306 222.383 680.988 225.052 685C225.943 688.305 225.943 688.305 226.302 691.875C226.507 693.843 226.507 693.843 226.716 695.851C226.832 697.234 226.944 698.617 227.052 700C227.109 700.685 227.165 701.371 227.223 702.077C227.746 708.641 228.073 715.167 228.062 721.753C228.06 722.737 228.059 723.722 228.057 724.736C228.056 725.483 228.054 726.23 228.052 727C219.177 727.023 210.301 727.041 201.425 727.052C197.304 727.057 193.182 727.064 189.06 727.075C185.079 727.086 181.098 727.092 177.117 727.095C175.602 727.097 174.086 727.1 172.571 727.106C170.441 727.113 168.311 727.114 166.181 727.113C164.971 727.116 163.76 727.118 162.514 727.12C158.963 726.997 155.557 726.565 152.052 726C152.53 721.701 155.064 719.938 158.052 717C166.066 708.331 173.398 699.156 180.396 689.656C180.855 689.054 181.314 688.453 181.787 687.833C183.108 686.039 183.108 686.039 183.943 684.005C187.468 676.892 194.876 677.983 201.827 678.142Z" fill="white"/>
<path d="M728.052 555C728.382 555 728.712 555 729.052 555C732.783 581.611 731.202 609.325 731.187 636.126C731.184 642.156 731.186 648.186 731.188 654.216C731.19 664.365 731.187 674.515 731.183 684.664C731.177 696.234 731.179 707.803 731.184 719.373C731.189 729.437 731.19 739.502 731.187 749.566C731.185 755.517 731.185 761.469 731.189 767.42C731.201 792.837 731.054 818.244 730.61 843.657C730.591 844.792 730.572 845.927 730.552 847.096C730.15 870.416 729.18 893.705 728.052 917C738.942 917 749.832 917 761.052 917C761.052 837.14 761.052 757.28 761.052 675C766.332 675 771.612 675 777.052 675C778.978 678.851 778.101 683.8 778.052 688C773.432 688 768.812 688 764.052 688C764.054 689.167 764.056 690.334 764.058 691.537C764.101 719.225 764.134 746.914 764.154 774.602C764.157 778.008 764.159 781.414 764.162 784.82C764.163 785.498 764.163 786.176 764.164 786.875C764.172 797.863 764.188 808.851 764.207 819.838C764.225 831.108 764.236 842.378 764.24 853.647C764.243 859.979 764.249 866.311 764.264 872.643C764.277 878.598 764.281 884.553 764.278 890.508C764.279 892.698 764.283 894.888 764.291 897.078C764.301 900.059 764.298 903.04 764.293 906.021C764.299 906.896 764.304 907.77 764.31 908.671C764.28 914.658 764.28 914.658 762.052 918C759.23 918.361 759.23 918.361 755.583 918.341C754.588 918.341 754.588 918.341 753.572 918.342C751.375 918.34 749.179 918.316 746.982 918.293C745.46 918.287 743.939 918.283 742.417 918.28C738.409 918.269 734.401 918.239 730.393 918.206C726.304 918.175 722.215 918.162 718.126 918.146C710.102 918.114 702.077 918.063 694.052 918C694.052 917.67 694.052 917.34 694.052 917C704.612 917 715.172 917 726.052 917C725.722 913.37 725.392 909.74 725.052 906C724.976 904.021 724.927 902.04 724.926 900.059C724.924 899.014 724.921 897.968 724.919 896.891C724.921 895.78 724.923 894.669 724.925 893.524C724.924 892.314 724.922 891.104 724.921 889.858C724.917 886.53 724.918 883.202 724.922 879.873C724.924 876.271 724.92 872.669 724.918 869.066C724.913 862.014 724.914 854.962 724.917 847.91C724.919 842.161 724.92 836.413 724.918 830.665C724.918 829.844 724.918 829.023 724.918 828.177C724.918 826.508 724.917 824.839 724.917 823.171C724.914 807.529 724.917 791.888 724.923 776.247C724.927 762.901 724.927 749.556 724.922 736.21C724.916 720.659 724.914 705.107 724.917 689.556C724.918 687.886 724.918 686.217 724.918 684.547C724.919 683.726 724.919 682.905 724.919 682.059C724.92 676.347 724.918 670.635 724.916 664.923C724.878 564.522 724.878 564.522 728.052 555Z" fill="white"/>
<path d="M308.052 622C315.642 622 323.232 622 331.052 622C331.052 642.46 331.052 662.92 331.052 684C295.358 684 295.358 684 280.615 682.5C279.07 682.354 277.525 682.21 275.98 682.066C272.336 681.726 268.694 681.369 265.052 681C266.313 677.217 267.906 676.345 271.052 673.938C287.422 660.779 296.798 643.269 306.088 624.803C307.052 623 307.052 623 308.052 622Z" fill="white"/>
<path d="M330.052 583.999C331.271 587.795 331.166 591.427 331.15 595.39C331.148 596.095 331.147 596.799 331.146 597.525C331.14 599.767 331.127 602.008 331.115 604.249C331.11 605.773 331.105 607.296 331.101 608.82C331.09 612.546 331.073 616.273 331.052 619.999C309.038 620.199 287.055 619.619 265.052 618.999C264.988 617.062 264.942 615.125 264.904 613.187C264.876 612.108 264.849 611.029 264.82 609.917C265.052 606.999 265.052 606.999 267.427 603.999C271.65 601.331 276.379 599.696 281.052 597.999C282.184 597.559 283.316 597.118 284.482 596.664C295.091 592.541 305.895 589.094 316.764 585.726C318.695 585.113 320.61 584.449 322.521 583.773C325.434 582.883 327.161 583.149 330.052 583.999Z" fill="white"/>
<path d="M264.052 686C272.302 686 280.552 686 289.052 686C289.236 693.317 289.395 700.625 289.492 707.942C289.532 710.43 289.586 712.918 289.656 715.406C289.753 718.983 289.798 722.558 289.833 726.137C289.875 727.248 289.916 728.36 289.959 729.505C289.963 737.053 289.963 737.053 287.324 739.797C285.273 741.105 283.307 742.095 281.052 743C280.058 743.45 279.064 743.9 278.04 744.363C277.157 744.677 276.274 744.99 275.365 745.312C274.029 745.802 274.029 745.802 272.665 746.301C270.007 747.012 267.79 747.133 265.052 747C264.216 743.365 263.93 740.018 263.939 736.292C263.939 735.171 263.939 734.05 263.939 732.895C263.944 731.696 263.949 730.497 263.955 729.262C263.956 728.026 263.957 726.79 263.959 725.517C263.963 722.243 263.972 718.97 263.984 715.697C263.994 712.352 263.998 709.007 264.003 705.662C264.014 699.108 264.033 692.554 264.052 686Z" fill="white"/>
<path d="M285.502 622.805C286.773 622.815 286.773 622.815 288.07 622.824C289.392 622.85 289.392 622.85 290.74 622.875C292.079 622.889 292.079 622.889 293.445 622.903C295.648 622.926 297.85 622.959 300.052 623C301.319 626.858 300.511 628.804 298.703 632.431C298.344 633.114 297.985 633.797 297.615 634.5C297.247 635.212 296.88 635.924 296.501 636.658C291.696 645.792 286.003 654.061 279.427 662C278.763 662.811 278.763 662.811 278.084 663.638C275.101 667.138 272.114 669.823 268.052 672C265.87 671.598 265.87 671.598 264.052 671C263.44 637.838 263.44 637.838 267.052 627C267.712 627 268.372 627 269.052 627C269.139 627.736 269.225 628.472 269.314 629.231C269.987 633.907 270.467 637.203 273.302 641.063C276.177 643.088 278.716 643.964 282.052 645C281.68 643.975 281.307 642.951 280.923 641.895C280.445 640.534 279.967 639.174 279.49 637.813C279.243 637.139 278.996 636.466 278.742 635.772C277.383 631.849 276.501 628.948 278.052 625C281.205 622.898 281.913 622.757 285.502 622.805Z" fill="white"/>
<path d="M761.052 675C766.332 675 771.612 675 777.052 675C778.978 678.851 778.101 683.8 778.052 688C773.432 688 768.812 688 764.052 688C764.054 689.167 764.056 690.334 764.058 691.537C764.101 719.225 764.134 746.914 764.154 774.602C764.157 778.008 764.159 781.414 764.162 784.82C764.163 785.498 764.163 786.176 764.164 786.875C764.172 797.863 764.188 808.851 764.207 819.838C764.225 831.108 764.236 842.378 764.24 853.647C764.243 859.979 764.249 866.311 764.264 872.643C764.277 878.598 764.281 884.553 764.278 890.508C764.279 892.698 764.283 894.888 764.291 897.078C764.301 900.059 764.298 903.04 764.293 906.021C764.299 906.896 764.304 907.77 764.31 908.671C764.28 914.658 764.28 914.658 762.052 918C759.23 918.361 759.23 918.361 755.583 918.341C754.588 918.341 754.588 918.341 753.572 918.342C751.375 918.34 749.179 918.316 746.982 918.293C745.46 918.287 743.939 918.283 742.417 918.28C738.409 918.269 734.401 918.239 730.393 918.206C726.304 918.175 722.215 918.162 718.126 918.146C710.102 918.114 702.077 918.063 694.052 918C694.052 917.67 694.052 917.34 694.052 917C698.29 916.824 702.527 916.665 706.766 916.518C708.19 916.466 709.613 916.411 711.036 916.352C727.773 915.657 744.237 916.49 761.052 917C761.052 837.14 761.052 757.28 761.052 675Z" fill="white"/>
<path d="M411.052 688C414.651 690.776 417.97 693.654 421.052 697C421.052 697.66 421.052 698.32 421.052 699C420.062 699.33 419.072 699.66 418.052 700C415.668 712.65 415.637 725.234 415.49 738.062C415.454 740.562 415.419 743.061 415.383 745.56C414.743 791.37 414.435 837.187 414.052 883C413.722 883 413.392 883 413.052 883C411.717 854.704 410.882 826.45 410.786 798.125C410.779 795.939 410.77 793.753 410.762 791.568C410.71 778.167 410.679 764.766 410.671 751.365C410.668 744.64 410.65 737.915 410.616 731.19C410.596 726.995 410.594 722.799 410.605 718.603C410.608 715.418 410.585 712.234 410.566 709.049C410.575 707.91 410.583 706.771 410.591 705.598C410.527 699.434 410.174 695.706 406.052 691C407.702 690.01 409.352 689.02 411.052 688Z" fill="white"/>
<path d="M272.052 619C291.75 618.881 311.372 619.03 331.052 620C331.052 620.33 331.052 620.66 331.052 621C330.432 621.015 329.811 621.029 329.172 621.044C326.361 621.119 323.55 621.215 320.74 621.313C319.763 621.335 318.787 621.358 317.781 621.381C316.843 621.416 315.905 621.452 314.939 621.488C313.643 621.528 313.643 621.528 312.321 621.568C309.526 622.1 308.771 622.759 307.052 625C306.061 626.678 305.126 628.39 304.232 630.121C303.701 631.134 303.17 632.146 302.624 633.189C302.064 634.261 301.504 635.333 300.927 636.438C296.236 645.248 291.565 653.396 285.052 661C284.28 661.92 283.508 662.841 282.712 663.789C278.836 668.266 275.227 672.081 270.052 675C269.615 672.875 269.615 672.875 270.052 670C271.632 668.626 273.224 667.265 274.865 665.965C285.422 656.482 295.724 640.439 300.052 627C300.052 626.01 300.052 625.02 300.052 624C294.442 623.67 288.832 623.34 283.052 623C282.722 622.34 282.392 621.68 282.052 621C279.696 620.532 279.696 620.532 276.99 620.375C276.071 620.3 275.152 620.225 274.205 620.148C273.139 620.075 273.139 620.075 272.052 620C272.052 619.67 272.052 619.34 272.052 619Z" fill="white"/>
<path d="M300.052 683C300.547 684.485 300.547 684.485 301.052 686C298.082 686 295.112 686 292.052 686C292.057 686.651 292.061 687.302 292.066 687.972C292.11 694.753 292.14 701.534 292.162 708.315C292.172 710.845 292.186 713.374 292.203 715.904C292.227 719.543 292.239 723.182 292.248 726.821C292.258 727.949 292.268 729.077 292.279 730.24C292.28 735.546 292.236 740.052 290.052 745C288.909 745.147 288.909 745.147 287.744 745.297C281.561 746.193 276.355 747.411 270.794 750.293C269.932 750.643 269.932 750.643 269.052 751C267.052 750 267.052 750 266.052 747C267.065 746.686 268.079 746.371 269.123 746.047C270.474 745.616 271.826 745.183 273.177 744.75C273.842 744.546 274.508 744.341 275.193 744.129C279.73 742.661 283.142 740.715 287.052 738C287.712 738 288.372 738 289.052 738C288.722 720.84 288.392 703.68 288.052 686C285.742 685.67 283.432 685.34 281.052 685C281.052 684.67 281.052 684.34 281.052 684C287.435 683.177 293.62 682.88 300.052 683Z" fill="white"/>
<path d="M761.052 675C766.332 675 771.612 675 777.052 675C778.375 677.645 778.149 679.678 778.115 682.625C778.106 683.628 778.097 684.631 778.087 685.664C778.076 686.435 778.064 687.206 778.052 688C777.053 688.049 776.054 688.098 775.025 688.148C773.735 688.223 772.444 688.298 771.115 688.375C769.827 688.445 768.539 688.514 767.212 688.586C766.17 688.723 765.127 688.859 764.052 689C762.47 692.165 762.811 695.591 762.736 699.07C762.715 699.867 762.694 700.663 762.673 701.483C762.607 704.03 762.549 706.578 762.49 709.125C762.447 710.85 762.403 712.576 762.359 714.301C762.252 718.534 762.15 722.767 762.052 727C761.722 727 761.392 727 761.052 727C761.052 709.84 761.052 692.68 761.052 675Z" fill="white"/>
<path d="M228.052 720C228.382 720 228.712 720 229.052 720C229.052 722.64 229.052 725.28 229.052 728C215.852 728.33 202.652 728.66 189.052 729C190.372 729.66 191.692 730.32 193.052 731C181.832 731 170.612 731 159.052 731C158.722 730.01 158.392 729.02 158.052 728C159.052 727 159.052 727 161.792 726.88C163.016 726.882 164.239 726.884 165.5 726.886C166.509 726.886 166.509 726.886 167.54 726.886C169.774 726.887 172.009 726.895 174.244 726.902C175.789 726.904 177.335 726.906 178.88 726.907C182.956 726.91 187.031 726.92 191.107 726.931C195.262 726.942 199.418 726.946 203.574 726.951C211.733 726.962 219.893 726.979 228.052 727C228.052 724.69 228.052 722.38 228.052 720Z" fill="white"/>
<path d="M324.052 851C324.712 851 325.372 851 326.052 851C327.083 855.237 327.197 859.344 327.185 863.68C327.186 864.411 327.187 865.142 327.188 865.895C327.188 867.436 327.187 868.978 327.182 870.519C327.177 872.86 327.182 875.202 327.189 877.543C327.188 879.047 327.187 880.551 327.185 882.055C327.187 882.747 327.189 883.438 327.191 884.151C327.17 888.542 326.759 892.68 326.052 897C325.392 897 324.732 897 324.052 897C322.899 892.413 322.907 888 322.919 883.305C322.918 882.475 322.917 881.646 322.916 880.792C322.916 879.045 322.917 877.299 322.922 875.552C322.927 872.877 322.922 870.202 322.915 867.527C322.916 865.828 322.917 864.129 322.919 862.43C322.917 861.63 322.915 860.83 322.913 860.005C322.927 856.745 323.014 854.115 324.052 851Z" fill="white"/>
<path d="M729.052 850C729.382 850 729.712 850 730.052 850C730.2 864.781 729.748 879.487 729.052 894.25C728.955 896.375 728.859 898.5 728.763 900.625C728.531 905.75 728.293 910.875 728.052 916C727.392 916 726.732 916 726.052 916C726.027 909.756 726.009 903.512 725.997 897.268C725.992 895.147 725.986 893.026 725.977 890.905C725.965 887.844 725.959 884.783 725.955 881.723C725.949 880.785 725.944 879.847 725.939 878.881C725.938 873.173 726.322 867.662 727.052 862C727.382 862 727.712 862 728.052 862C728.382 858.04 728.712 854.08 729.052 850Z" fill="white"/>
<path d="M295.052 642C296.052 645 296.052 645 295.041 647.207C291.374 652.907 287.418 658.196 283.052 663.375C282.567 663.957 282.081 664.54 281.581 665.14C278.118 669.146 274.458 672.059 270.052 675C269.615 672.875 269.615 672.875 270.052 670C271.623 668.635 273.206 667.282 274.845 666C277.673 663.437 279.942 660.53 282.24 657.5C282.655 656.954 283.071 656.408 283.499 655.846C285.495 653.186 287.387 650.491 289.212 647.711C290.963 645.131 292.453 643.671 295.052 642Z" fill="white"/>
<path d="M35.0522 723C35.0522 723.66 35.0522 724.32 35.0522 725C32.5591 727.09 29.9527 728.995 27.3374 730.93C24.9841 732.787 24.9841 732.787 24.1108 735.07C23.8555 737.333 23.8555 737.333 26.0522 740C24.6251 741.676 23.1852 743.34 21.7397 745C20.9392 745.928 20.1387 746.856 19.314 747.812C17.0522 750 17.0522 750 14.0522 750C14.934 738.964 23.1737 731.297 31.2046 724.328C33.0522 723 33.0522 723 35.0522 723Z" fill="white"/>
<path d="M728.052 555C728.382 555 728.712 555 729.052 555C730.007 561.375 730.173 567.561 730.115 574C730.11 574.966 730.106 575.931 730.101 576.926C730.09 579.284 730.073 581.642 730.052 584C729.392 584.33 728.732 584.66 728.052 585C727.583 588.046 727.583 588.046 727.427 591.562C727.353 592.76 727.278 593.958 727.201 595.191C727.152 596.118 727.103 597.045 727.052 598C726.722 598 726.392 598 726.052 598C726.023 593.771 726.005 589.542 725.99 585.312C725.982 584.134 725.973 582.955 725.965 581.74C725.909 561.431 725.909 561.431 728.052 555Z" fill="white"/>
<path d="M267.052 627C267.712 627 268.372 627 269.052 627C269.173 627.748 269.295 628.495 269.419 629.266C269.587 630.25 269.755 631.235 269.927 632.25C270.09 633.225 270.252 634.199 270.419 635.203C271.001 637.773 271.761 639.721 273.052 642C271.74 643.5 271.74 643.5 270.052 645C269.062 645 268.072 645 267.052 645C266.392 650.28 265.732 655.56 265.052 661C264.722 661 264.392 661 264.052 661C263.786 653.577 264.212 646.313 264.99 638.938C265.077 638.104 265.163 637.271 265.253 636.413C265.621 633.086 265.989 630.191 267.052 627Z" fill="white"/>
<path d="M287.052 738C287.712 738.33 288.372 738.66 289.052 739C288.392 740.32 287.732 741.64 287.052 743C288.372 742.67 289.692 742.34 291.052 742C290.722 742.99 290.392 743.98 290.052 745C289.29 745.098 288.529 745.196 287.744 745.297C281.561 746.192 276.355 747.411 270.794 750.293C270.22 750.526 269.645 750.76 269.052 751C267.052 750 267.052 750 266.052 747C267.065 746.685 268.079 746.371 269.123 746.047C270.474 745.615 271.826 745.183 273.177 744.75C273.842 744.545 274.508 744.34 275.193 744.129C279.713 742.667 283.211 740.8 287.052 738Z" fill="white"/>
<path d="M414.052 720C414.382 720 414.712 720 415.052 720C415.052 737.82 415.052 755.64 415.052 774C414.722 774 414.392 774 414.052 774C413.557 756.675 413.557 756.675 413.052 739C412.722 739 412.392 739 412.052 739C411.94 732.899 412.065 727.03 413.052 721C413.382 720.67 413.712 720.34 414.052 720Z" fill="white"/>
<path d="M267.052 708C269.24 707.688 269.24 707.688 272.052 708C274.865 710.188 274.865 710.188 277.052 713C277.365 715.812 277.365 715.812 277.052 718C275.732 718.33 274.412 718.66 273.052 719C272.04 717.928 271.043 716.842 270.052 715.75C269.495 715.147 268.938 714.543 268.365 713.922C267.052 712 267.052 712 267.052 708Z" fill="white"/>
<path d="M411.052 688C412.702 689.32 414.352 690.64 416.052 692C415.722 692.99 415.392 693.98 415.052 695C414.722 695 414.392 695 414.052 695C413.722 701.27 413.392 707.54 413.052 714C412.722 714 412.392 714 412.052 714C412.038 713.01 412.024 712.02 412.009 711C411.768 703.088 411.14 697.393 406.052 691C407.702 690.01 409.352 689.02 411.052 688Z" fill="white"/>
<path d="M88.0522 724C93.6781 725.768 96.8307 729.168 100.052 734C99.6772 736.188 99.6772 736.188 99.0522 738C98.0622 738 97.0722 738 96.0522 738C94.0093 735.445 94.0093 735.445 91.8647 732.125C91.1493 731.034 90.4339 729.944 89.6968 728.82C88.0522 726 88.0522 726 88.0522 724Z" fill="white"/>
<path d="M163.052 711C163.712 711.99 164.372 712.98 165.052 714C163.908 715.33 163.908 715.33 162.74 716.688C161.023 718.716 159.818 720.44 158.552 722.812C157.052 725 157.052 725 154.365 725.812C153.602 725.874 152.838 725.936 152.052 726C152.529 721.713 155.033 719.882 158.052 717C159.766 715.035 161.406 713.023 163.052 711Z" fill="white"/>
<path d="M1081.05 671C1081.71 671.33 1082.37 671.66 1083.05 672C1083.11 674.25 1083.11 674.25 1082.05 677C1078.26 679.357 1074.53 681 1070.05 681C1071.51 677.314 1073.35 675.839 1076.68 673.75C1077.49 673.229 1078.31 672.708 1079.15 672.172C1079.78 671.785 1080.41 671.398 1081.05 671Z" fill="white"/>
<path d="M6.05225 669C7.46975 669.115 8.88626 669.243 10.3022 669.375C11.0912 669.445 11.8801 669.514 12.6929 669.586C15.1381 670.015 16.9006 670.786 19.0522 672C18.0622 672 17.0722 672 16.0522 672C15.7222 672.66 15.3922 673.32 15.0522 674C14.7222 673.67 14.3922 673.34 14.0522 673C13.7222 673.99 13.3922 674.98 13.0522 676C14.0422 676.33 15.0322 676.66 16.0522 677C15.3922 677.66 14.7322 678.32 14.0522 679C12.713 677.715 11.381 676.421 10.0522 675.125C8.9385 674.046 8.9385 674.046 7.80225 672.945C6.05225 671 6.05225 671 6.05225 669Z" fill="white"/>
<path d="M89.0522 734C89.7122 734.66 90.3722 735.32 91.0522 736C93.1605 735.681 93.1605 735.681 95.0522 735C97.0522 738 97.0522 738 97.0522 742C92.2197 741.586 90.2255 739.536 87.0522 736C87.7122 735.34 88.3722 734.68 89.0522 734Z" fill="white"/>
<path d="M616.052 626C616.712 626.66 617.372 627.32 618.052 628C617.413 628.743 616.773 629.485 616.115 630.25C613.951 632.728 613.951 632.728 613.615 635.125C612.741 638.036 610.651 638.582 608.052 640C606.367 641.31 604.696 642.638 603.052 644C604.71 640.077 607.368 637.069 610.115 633.875C613.416 630.169 613.416 630.169 616.052 626Z" fill="white"/>
<path d="M987.052 798C998.077 799.82 998.077 799.82 1002.05 803C1002.05 803.66 1002.05 804.32 1002.05 805C1000.4 805.382 998.728 805.714 997.052 806C996.722 805.67 996.392 805.34 996.052 805C995.392 804.67 994.732 804.34 994.052 804C994.052 803.01 994.052 802.02 994.052 801C992.402 801.33 990.752 801.66 989.052 802C989.052 801.34 989.052 800.68 989.052 800C988.392 800 987.732 800 987.052 800C987.052 799.34 987.052 798.68 987.052 798Z" fill="white"/>
<path d="M1042.05 715C1042.05 718.807 1041.3 719.911 1039.05 723C1037.09 724.856 1035.06 726.609 1032.99 728.352C1030.9 730.131 1028.96 732.017 1027.05 734C1026.39 733.67 1025.73 733.34 1025.05 733C1025.69 732.371 1026.33 731.742 1026.99 731.094C1032.24 725.904 1037.29 720.641 1042.05 715Z" fill="white"/>
<path d="M963.052 685C963.712 685.99 964.372 686.98 965.052 688C967.841 688.221 970.399 688.281 973.177 688.188C973.931 688.174 974.685 688.16 975.462 688.146C977.326 688.111 979.189 688.057 981.052 688C981.052 688.33 981.052 688.66 981.052 689C979.799 689.133 978.546 689.266 977.255 689.402C975.604 689.581 973.953 689.759 972.302 689.938C971.065 690.068 971.065 690.068 969.802 690.201C969.003 690.288 968.204 690.375 967.38 690.465C966.647 690.543 965.914 690.622 965.159 690.703C963.071 690.997 961.087 691.451 959.052 692C960.126 689.085 960.83 687.222 963.052 685Z" fill="white"/>
<path d="M44.0522 697C49.6869 696.45 52.4421 698.049 57.0522 701C53.5055 702.182 51.077 701.893 47.3647 701.562C46.1853 701.46 45.0058 701.359 43.7905 701.254C42.8869 701.17 41.9833 701.086 41.0522 701C42.3722 700.67 43.6922 700.34 45.0522 700C44.7222 699.01 44.3922 698.02 44.0522 697Z" fill="white"/>
<path d="M105.052 717C113.624 717.857 113.624 717.857 117.052 720C112.427 723 112.427 723 109.052 723C106.865 720 106.865 720 105.052 717Z" fill="white"/>
<path d="M1122.05 639C1120.6 642.829 1118.62 644.121 1115.05 646C1114.39 644.68 1113.73 643.36 1113.05 642C1116.03 639.018 1117.84 639 1122.05 639Z" fill="white"/>
<path d="M1017.05 728C1020.28 731.761 1020.05 734.118 1020.05 739C1018.07 739.99 1018.07 739.99 1016.05 741C1016.03 739.583 1016.01 738.167 1015.99 736.75C1015.98 735.961 1015.97 735.172 1015.95 734.359C1016.05 732.093 1016.42 730.171 1017.05 728Z" fill="white"/>
<path d="M731.052 480C731.382 480 731.712 480 732.052 480C732.113 481.06 732.173 482.119 732.236 483.211C732.32 484.599 732.405 485.987 732.49 487.375C732.529 488.074 732.568 488.772 732.609 489.492C732.795 493.374 732.795 493.374 734.052 497C734.712 497.33 735.372 497.66 736.052 498C736.382 498.66 736.712 499.32 737.052 500C734.615 499.625 734.615 499.625 732.052 499C730.397 495.69 730.951 492.009 730.99 488.375C730.994 487.573 730.999 486.771 731.003 485.945C731.015 483.964 731.033 481.982 731.052 480Z" fill="white"/>
<path d="M266.052 705C268.032 705.66 270.012 706.32 272.052 707C272.052 707.33 272.052 707.66 272.052 708C270.402 708 268.752 708 267.052 708C267.712 709.98 268.372 711.96 269.052 714C268.062 714.495 268.062 714.495 267.052 715C266.392 714.67 265.732 714.34 265.052 714C264.955 707.848 264.955 707.848 265.052 706C265.382 705.67 265.712 705.34 266.052 705Z" fill="white"/>
<path d="M1145.05 693C1147.92 695.422 1148.76 697.597 1149.74 701.188C1149.99 702.089 1150.24 702.99 1150.5 703.918C1150.68 704.605 1150.86 705.292 1151.05 706C1148.55 704.25 1148.55 704.25 1146.05 702C1146.05 700.68 1146.05 699.36 1146.05 698C1145.39 697.67 1144.73 697.34 1144.05 697C1144.38 695.68 1144.71 694.36 1145.05 693Z" fill="white"/>
<path d="M1054.05 662C1054.05 666.29 1054.05 670.58 1054.05 675C1052.05 674 1052.05 674 1051.31 672.293C1049.75 666.57 1049.75 666.57 1051.36 663.5C1053.05 662 1053.05 662 1054.05 662Z" fill="white"/>
<path d="M547.052 797C547.712 797.66 548.372 798.32 549.052 799C548.248 799.619 547.443 800.238 546.615 800.875C544.014 802.742 544.014 802.742 543.052 805C541.072 804.34 539.092 803.68 537.052 803C539.966 801.057 542.925 799.564 546.052 798C546.382 797.67 546.712 797.34 547.052 797Z" fill="white"/>
<path d="M601.052 119C603.681 120.522 605.896 121.844 608.052 124C610.255 124.46 610.255 124.46 612.677 124.625C613.495 124.7 614.312 124.775 615.154 124.852C615.78 124.901 616.407 124.95 617.052 125C617.052 125.33 617.052 125.66 617.052 126C615.137 126.108 613.22 126.186 611.302 126.25C609.701 126.32 609.701 126.32 608.068 126.391C605.052 126 605.052 126 602.662 124.172C601.052 122 601.052 122 601.052 119Z" fill="white"/>
<path d="M1085.05 742C1085.71 742.99 1086.37 743.98 1087.05 745C1085.68 747.5 1085.68 747.5 1084.05 750C1083.39 750 1082.73 750 1082.05 750C1081.72 748.02 1081.39 746.04 1081.05 744C1082.37 743.34 1083.69 742.68 1085.05 742Z" fill="white"/>
<path d="M35.0522 723C35.0522 723.66 35.0522 724.32 35.0522 725C32.9702 726.945 32.9702 726.945 30.2397 729.125C28.8998 730.212 28.8998 730.212 27.5327 731.32C25.0522 733 25.0522 733 22.0522 733C23.3199 731.705 24.5915 730.414 25.8647 729.125C26.5724 728.406 27.2801 727.686 28.0093 726.945C32.1526 723 32.1526 723 35.0522 723Z" fill="white"/>
<path d="M143.052 727C143.052 728.98 143.052 730.96 143.052 733C138.302 732.25 138.302 732.25 136.052 730C138.496 727.207 139.294 727 143.052 727Z" fill="white"/>
<path d="M99.0522 700C100.042 701.32 101.032 702.64 102.052 704C101.722 704.66 101.392 705.32 101.052 706C97.9897 706.625 97.9897 706.625 95.0522 707C95.616 703.73 96.5519 702.174 99.0522 700Z" fill="white"/>
<path d="M116.052 758C116.382 758.66 116.712 759.32 117.052 760C118.372 759.67 119.692 759.34 121.052 759C121.052 763 121.052 763 120.052 765C119.062 764.67 118.072 764.34 117.052 764C116.722 762.02 116.392 760.04 116.052 758Z" fill="white"/>
<path d="M274.052 671C274.712 671.33 275.372 671.66 276.052 672C275.289 672.743 274.526 673.485 273.74 674.25C271.091 676.813 271.091 676.813 269.427 679.312C268.747 680.148 268.747 680.148 268.052 681C267.062 681 266.072 681 265.052 681C266.203 677.547 267.373 676.619 270.115 674.312C271.215 673.379 271.215 673.379 272.337 672.426C272.903 671.955 273.469 671.485 274.052 671Z" fill="white"/>
<path d="M301.052 628C301.712 628 302.372 628 303.052 628C302.177 633.75 302.177 633.75 301.052 636C300.062 635.67 299.072 635.34 298.052 635C298.802 630.25 298.802 630.25 301.052 628Z" fill="white"/>
<path d="M88.0522 724C90.4897 724.75 90.4897 724.75 93.0522 726C93.9897 728 93.9897 728 94.0522 730C93.3922 730.66 92.7322 731.32 92.0522 732C88.0522 726.25 88.0522 726.25 88.0522 724Z" fill="white"/>
<path d="M109.052 690C109.382 690.99 109.712 691.98 110.052 693C109.268 693.598 108.485 694.196 107.677 694.812C104.907 696.911 104.907 696.911 103.052 700C102.062 699.67 101.072 699.34 100.052 699C103.022 696.03 105.992 693.06 109.052 690Z" fill="white"/>
<path d="M582.052 0C582.052 1.65 582.052 3.3 582.052 5C580.732 4.67 579.412 4.34 578.052 4C578.052 5.65 578.052 7.3 578.052 9C577.722 9 577.392 9 577.052 9C576.865 5.625 576.865 5.625 577.052 2C580.052 0 580.052 0 582.052 0Z" fill="white"/>
<path d="M464.052 471C464.712 471.33 465.372 471.66 466.052 472C465.722 472.99 465.392 473.98 465.052 475C464.392 475 463.732 475 463.052 475C462.722 475.66 462.392 476.32 462.052 477C461.062 477.495 461.062 477.495 460.052 478C459.722 476.68 459.392 475.36 459.052 474C461.427 472.438 461.427 472.438 464.052 471Z" fill="white"/>
<path d="M295.052 642C295.382 642.99 295.712 643.98 296.052 645C294.615 647.688 294.615 647.688 293.052 650C292.392 649.67 291.732 649.34 291.052 649C291.052 647.68 291.052 646.36 291.052 645C293.052 643.25 293.052 643.25 295.052 642Z" fill="white"/>
<path d="M46.0522 728C46.0522 729.98 46.0522 731.96 46.0522 734C45.7222 733.01 45.3922 732.02 45.0522 731C43.7322 731.33 42.4122 731.66 41.0522 732C41.0522 731.34 41.0522 730.68 41.0522 730C40.3922 729.67 39.7322 729.34 39.0522 729C41.515 727.768 43.3318 727.928 46.0522 728Z" fill="white"/>
<path d="M1004.05 716C1004.71 717.32 1005.37 718.64 1006.05 720C1004.4 721.32 1002.75 722.64 1001.05 724C1000.39 723.67 999.732 723.34 999.052 723C1000.7 720.69 1002.35 718.38 1004.05 716Z" fill="white"/>
<path d="M114.052 671C114.712 671.33 115.372 671.66 116.052 672C111.302 676.875 111.302 676.875 109.052 678C108.392 677.34 107.732 676.68 107.052 676C109.362 674.35 111.672 672.7 114.052 671Z" fill="white"/>
<path d="M286.052 652C286.382 652.99 286.712 653.98 287.052 655C287.712 655.33 288.372 655.66 289.052 656C287.732 657.32 286.412 658.64 285.052 660C284.392 658.68 283.732 657.36 283.052 656C284.042 654.68 285.032 653.36 286.052 652Z" fill="white"/>
<path d="M35.0522 646C37.0322 646.66 39.0122 647.32 41.0522 648C40.0622 648.495 40.0622 648.495 39.0522 649C38.7222 649.99 38.3922 650.98 38.0522 652C37.3922 652 36.7322 652 36.0522 652C35.7222 650.02 35.3922 648.04 35.0522 646Z" fill="white"/>
<path d="M616.052 626C616.712 626.66 617.372 627.32 618.052 628C615.742 630.64 613.432 633.28 611.052 636C610.392 635.67 609.732 635.34 609.052 635C609.474 634.518 609.895 634.036 610.33 633.539C610.877 632.907 611.425 632.276 611.99 631.625C612.535 630.999 613.08 630.372 613.642 629.727C615.122 628.044 615.122 628.044 616.052 626Z" fill="white"/>
<path d="M83.0522 733C84.3722 734.32 85.6922 735.64 87.0522 737C86.0622 737.495 86.0622 737.495 85.0522 738C84.645 740.322 84.3079 742.657 84.0522 745C83.7222 745 83.3922 745 83.0522 745C83.0522 741.04 83.0522 737.08 83.0522 733Z" fill="white"/>
<path d="M171.052 702C171.712 702.33 172.372 702.66 173.052 703C170.742 705.64 168.432 708.28 166.052 711C165.392 710.67 164.732 710.34 164.052 710C166.362 707.36 168.672 704.72 171.052 702Z" fill="white"/>
<path d="M283.052 657C283.712 657.33 284.372 657.66 285.052 658C284.654 660.886 284.262 661.822 281.99 663.75C281.35 664.162 280.711 664.575 280.052 665C280.052 661.424 281.141 659.947 283.052 657Z" fill="white"/>
<path d="M954.052 892C954.382 892 954.712 892 955.052 892C955.052 894.64 955.052 897.28 955.052 900C954.062 900 953.072 900 952.052 900C952.927 893.125 952.927 893.125 954.052 892Z" fill="white"/>
<path d="M70.0522 728C70.7122 728 71.3722 728 72.0522 728C72.3822 730.97 72.7122 733.94 73.0522 737C72.7222 735.68 72.3922 734.36 72.0522 733C71.0622 732.67 70.0722 732.34 69.0522 732C69.3822 730.68 69.7122 729.36 70.0522 728Z" fill="white"/>
<path d="M19.0522 720C18.4335 720.289 17.8147 720.578 17.1772 720.875C14.919 721.937 14.919 721.937 13.0522 724C10.9272 724.625 10.9272 724.625 9.05225 725C14.0522 718.5 14.0522 718.5 19.0522 720Z" fill="white"/>
<path d="M418.052 699C419.042 699.33 420.032 699.66 421.052 700C419.732 702.64 418.412 705.28 417.052 708C415.979 703.706 416.255 702.805 418.052 699Z" fill="white"/>
<path d="M277.052 630C278.997 632.918 279.505 634.625 280.052 638C278.732 637.34 277.412 636.68 276.052 636C276.382 634.02 276.712 632.04 277.052 630Z" fill="white"/>
<path d="M958.052 791C960.362 791 962.672 791 965.052 791C963.732 792.32 962.412 793.64 961.052 795C960.062 794.67 959.072 794.34 958.052 794C958.052 793.01 958.052 792.02 958.052 791Z" fill="white"/>
<path d="M163.052 711C163.712 711.99 164.372 712.98 165.052 714C163.732 715.32 162.412 716.64 161.052 718C160.392 717.34 159.732 716.68 159.052 716C160.372 714.35 161.692 712.7 163.052 711Z" fill="white"/>
<path d="M49.0522 697C53.0122 698.98 53.0122 698.98 57.0522 701C53.7625 702.097 52.3392 701.8 49.0522 701C49.0522 699.68 49.0522 698.36 49.0522 697Z" fill="white"/>
<path d="M1013.05 688C1014.37 688 1015.69 688 1017.05 688C1016.72 689.32 1016.39 690.64 1016.05 692C1014.73 692 1013.41 692 1012.05 692C1012.38 690.68 1012.71 689.36 1013.05 688Z" fill="white"/>
<path d="M90.367 1010.77C89.8065 1005.12 87.4009 1000.73 83.1503 997.602C78.8996 994.472 73.1309 992.907 65.844 992.907C60.8927 992.907 56.7121 993.608 53.3022 995.009C49.8924 996.364 47.2766 998.256 45.4549 1000.68C43.6799 1003.11 42.7924 1005.87 42.7924 1008.95C42.699 1011.52 43.2361 1013.76 44.4039 1015.68C45.6184 1017.59 47.2766 1019.25 49.3786 1020.65C51.4805 1022.01 53.9095 1023.2 56.6654 1024.23C59.4213 1025.21 62.3641 1026.05 65.4937 1026.75L78.3858 1029.83C84.645 1031.23 90.3904 1033.1 95.622 1035.44C100.854 1037.77 105.384 1040.65 109.215 1044.06C113.045 1047.47 116.011 1051.48 118.113 1056.11C120.262 1060.73 121.359 1066.03 121.406 1072.01C121.359 1080.79 119.117 1088.41 114.68 1094.85C110.289 1101.25 103.936 1106.23 95.622 1109.78C87.3542 1113.28 77.3815 1115.03 65.7039 1115.03C54.1197 1115.03 44.0302 1113.26 35.4355 1109.71C26.8874 1106.16 20.2078 1100.9 15.3967 1093.94C10.6322 1086.94 8.13317 1078.27 7.89961 1067.95H37.2572C37.5842 1072.76 38.9621 1076.78 41.3911 1080C43.8667 1083.18 47.1598 1085.58 51.2703 1087.22C55.4276 1088.8 60.122 1089.6 65.3536 1089.6C70.4917 1089.6 74.9526 1088.85 78.7361 1087.36C82.5664 1085.86 85.5325 1083.78 87.6345 1081.12C89.7365 1078.46 90.7874 1075.4 90.7874 1071.94C90.7874 1068.72 89.8299 1066.01 87.9147 1063.81C86.0463 1061.62 83.2904 1059.75 79.647 1058.21C76.0503 1056.67 71.6361 1055.27 66.4045 1054L50.7799 1050.08C38.6819 1047.14 29.1295 1042.54 22.123 1036.28C15.1164 1030.02 11.6365 1021.59 11.6832 1010.98C11.6365 1002.3 13.9486 994.706 18.6197 988.213C23.3374 981.72 29.8069 976.652 38.0279 973.009C46.249 969.365 55.5911 967.543 66.0542 967.543C76.7042 967.543 85.9996 969.365 93.9404 973.009C101.928 976.652 108.14 981.72 112.578 988.213C117.015 994.706 119.304 1002.23 119.444 1010.77H90.367ZM141.813 1113V969.505H198.426C209.31 969.505 218.582 971.584 226.242 975.741C233.903 979.852 239.741 985.574 243.759 992.907C247.822 1000.19 249.854 1008.6 249.854 1018.13C249.854 1027.66 247.799 1036.07 243.689 1043.35C239.578 1050.64 233.622 1056.32 225.822 1060.38C218.068 1064.44 208.679 1066.48 197.655 1066.48H161.571V1042.16H192.751C198.589 1042.16 203.401 1041.16 207.184 1039.15C211.014 1037.1 213.864 1034.27 215.732 1030.67C217.647 1027.03 218.605 1022.85 218.605 1018.13C218.605 1013.37 217.647 1009.21 215.732 1005.66C213.864 1002.06 211.014 999.283 207.184 997.321C203.354 995.313 198.496 994.309 192.611 994.309H172.151V1113H141.813ZM269.56 1113V969.505H366.251V994.519H299.899V1028.71H361.276V1053.72H299.899V1087.99H366.531V1113H269.56ZM384.906 994.519V969.505H502.757V994.519H458.825V1113H428.837V994.519H384.906ZM552.503 969.505V1113H522.165V969.505H552.503ZM577.464 1113V969.505H607.803V1087.99H669.321V1113H577.464ZM689.412 1113V969.505H719.751V1087.99H781.268V1113H689.412ZM831.698 969.505V1113H801.36V969.505H831.698ZM988.523 1041.25C988.523 1056.9 985.557 1070.21 979.624 1081.19C973.739 1092.17 965.705 1100.55 955.522 1106.34C945.386 1112.09 933.988 1114.96 921.33 1114.96C908.578 1114.96 897.134 1112.07 886.998 1106.27C876.861 1100.48 868.85 1092.1 862.965 1081.12C857.079 1070.14 854.137 1056.85 854.137 1041.25C854.137 1025.6 857.079 1012.29 862.965 1001.32C868.85 990.338 876.861 981.977 886.998 976.232C897.134 970.439 908.578 967.543 921.33 967.543C933.988 967.543 945.386 970.439 955.522 976.232C965.705 981.977 973.739 990.338 979.624 1001.32C985.557 1012.29 988.523 1025.6 988.523 1041.25ZM957.764 1041.25C957.764 1031.12 956.246 1022.57 953.21 1015.61C950.22 1008.65 945.993 1003.37 940.528 999.774C935.063 996.177 928.663 994.379 921.33 994.379C913.996 994.379 907.597 996.177 902.132 999.774C896.667 1003.37 892.416 1008.65 889.38 1015.61C886.39 1022.57 884.896 1031.12 884.896 1041.25C884.896 1051.39 886.39 1059.94 889.38 1066.9C892.416 1073.86 896.667 1079.13 902.132 1082.73C907.597 1086.33 913.996 1088.13 921.33 1088.13C928.663 1088.13 935.063 1086.33 940.528 1082.73C945.993 1079.13 950.22 1073.86 953.21 1066.9C956.246 1059.94 957.764 1051.39 957.764 1041.25ZM1131.02 969.505V1113H1104.81L1042.39 1022.69H1041.33V1113H1011V969.505H1037.62L1099.56 1059.75H1100.82V969.505H1131.02Z" fill="white"/>
</svg>
